<?xml version="1.0" standalone="no"?>
<!DOCTYPE svg PUBLIC "-//W3C//DTD SVG 20010904//EN"
 "http://www.w3.org/TR/2001/REC-SVG-20010904/DTD/svg10.dtd">
<svg version="1.0" xmlns="http://www.w3.org/2000/svg"
 width="1024.000000pt" height="1024.000000pt" viewBox="0 0 1024.000000 1024.000000"
 preserveAspectRatio="xMidYMid meet">

<g transform="translate(0.000000,1024.000000) scale(0.100000,-0.100000)"
fill="#000000" stroke="none">
<path d="M6888 9033 c-9 -10 -52 -74 -95 -143 -44 -69 -162 -251 -263 -405
-101 -154 -224 -345 -273 -425 -144 -231 -231 -430 -225 -514 3 -39 5 -41 37
-44 31 -3 41 3 102 67 63 65 78 91 193 323 114 231 283 550 398 753 109 192
175 348 163 386 -8 24 -17 24 -37 2z"/>
<path d="M3030 8529 c-597 -67 -1143 -293 -1452 -601 -268 -267 -384 -565
-323 -827 38 -161 154 -278 293 -297 159 -21 398 116 466 268 34 73 37 104 11
100 -99 -14 -143 -13 -173 2 -46 24 -55 49 -50 130 8 130 113 314 264 468 172
174 371 289 644 371 169 51 291 70 460 69 115 0 162 -4 224 -21 157 -42 235
-93 280 -183 47 -93 26 -209 -61 -351 -184 -297 -524 -525 -812 -544 l-83 -6
7 24 c35 119 242 454 388 626 107 128 140 182 140 235 0 30 -7 46 -27 66 -24
24 -34 27 -99 27 -91 -1 -155 -29 -249 -111 -140 -122 -346 -419 -550 -794
-143 -263 -223 -419 -374 -727 -186 -379 -237 -467 -317 -547 -110 -110 -264
-143 -349 -76 -34 26 -55 74 -71 158 -17 88 -35 115 -85 130 -84 25 -186 -13
-265 -97 -66 -70 -99 -146 -105 -238 -16 -246 128 -450 357 -503 76 -18 266
-8 356 19 98 29 236 98 327 164 l76 55 51 -48 c217 -204 644 -214 1020 -25
240 120 406 267 531 469 130 209 181 473 126 649 -40 127 -145 262 -265 342
-33 22 -61 43 -61 46 0 3 33 18 73 34 121 46 298 142 388 210 237 177 399 448
399 665 0 270 -190 502 -495 607 -174 60 -417 84 -615 62z m-135 -1713 c102
-27 181 -81 227 -157 43 -69 51 -209 20 -319 -75 -259 -244 -459 -476 -565
-132 -61 -176 -70 -341 -70 -142 0 -152 1 -194 25 -80 45 -79 68 1 176 74 99
136 214 308 575 83 173 160 322 171 332 17 14 41 17 128 17 58 0 129 -6 156
-14z"/>
<path d="M7152 8448 c-5 -7 -123 -202 -262 -433 -138 -231 -276 -456 -305
-501 -61 -92 -77 -134 -51 -134 62 0 166 114 277 301 119 202 356 685 366 746
6 34 -6 43 -25 21z"/>
<path d="M8880 8307 c-146 -41 -255 -185 -371 -487 l-47 -124 -86 -13 c-101
-14 -167 -41 -215 -86 -65 -62 -81 -152 -37 -204 21 -25 31 -28 78 -27 30 1
65 7 77 14 13 6 25 10 27 7 9 -8 -109 -285 -193 -455 -177 -356 -370 -634
-404 -581 -5 8 -9 88 -9 179 0 91 -7 244 -15 341 -20 251 -17 264 97 387 106
114 129 182 88 250 -39 64 -137 87 -246 58 -139 -37 -218 -113 -392 -378 -429
-655 -531 -799 -657 -936 -96 -104 -162 -126 -186 -64 -30 78 52 332 197 612
145 282 166 328 171 390 4 45 2 65 -10 84 -28 42 -63 41 -193 -3 -129 -43
-151 -43 -172 5 -24 54 -28 59 -63 77 -46 25 -204 18 -304 -13 -293 -92 -567
-367 -826 -830 -50 -89 -85 -136 -158 -213 -191 -199 -456 -335 -633 -325 -64
3 -73 7 -99 36 -23 26 -29 42 -29 79 0 41 5 50 39 83 24 23 67 48 113 65 135
51 222 91 298 138 218 137 397 322 478 495 38 80 38 185 0 257 -67 129 -220
215 -382 215 -180 0 -359 -111 -572 -355 -237 -271 -399 -572 -434 -810 -38
-253 73 -496 258 -565 83 -32 245 -25 352 15 197 72 382 191 551 352 l76 72
16 -74 c44 -206 178 -337 328 -323 27 3 77 19 113 38 106 53 292 233 385 372
l38 57 5 -107 c4 -82 10 -119 28 -160 28 -64 87 -118 141 -127 130 -22 375
106 542 284 l67 71 0 -34 c0 -19 9 -63 20 -98 27 -88 82 -150 158 -178 81 -31
250 -24 370 14 211 68 393 179 564 344 l77 74 17 -58 c40 -140 116 -244 211
-290 142 -70 361 -24 576 119 292 196 548 607 442 712 -24 24 -68 33 -91 17
-5 -4 -37 -43 -69 -87 -114 -157 -299 -320 -437 -385 -115 -55 -158 -35 -158
73 0 131 41 261 214 682 148 359 169 401 203 418 21 11 79 16 238 19 175 3
215 6 242 21 61 32 81 113 44 173 -34 55 -197 114 -317 114 -24 0 -44 3 -44 6
0 3 40 48 88 99 57 60 100 117 122 161 68 133 40 246 -73 295 -63 27 -164 34
-227 16z m-2608 -1249 c27 -42 21 -55 -157 -353 -189 -316 -293 -466 -377
-539 -162 -142 -241 -75 -172 146 99 312 414 718 594 764 48 12 97 4 112 -18z
m-1439 -55 c4 -2 7 -26 7 -52 0 -108 -132 -297 -273 -393 -94 -64 -247 -120
-247 -90 0 20 83 168 142 252 159 227 291 328 371 283z m2492 -52 c9 -15 -22
-334 -44 -456 -31 -171 -65 -257 -121 -310 -29 -28 -37 -30 -105 -30 -68 0
-76 2 -105 30 -36 34 -50 78 -38 120 4 16 29 63 55 105 25 41 100 167 165 280
149 256 174 290 193 261z"/>
<path d="M5638 5646 c-134 -127 -179 -189 -209 -288 -37 -121 -16 -187 71
-221 30 -11 42 -12 53 -3 17 14 116 259 151 376 30 103 59 227 54 239 -2 5
-56 -41 -120 -103z"/>
<path d="M4956 5719 c-47 -37 -156 -199 -156 -232 0 -18 82 -77 108 -77 41 0
145 95 182 168 55 107 -45 211 -134 141z"/>
<path d="M6546 5405 c-166 -58 -297 -186 -458 -445 -131 -211 -152 -251 -461
-880 -155 -315 -274 -523 -363 -632 -89 -108 -236 -243 -300 -274 -52 -25 -59
-26 -83 -13 -36 20 -38 70 -8 189 54 211 152 426 273 602 90 129 124 199 124
255 0 83 -21 100 -151 124 -122 22 -190 -3 -262 -96 -47 -62 -324 -614 -395
-787 -67 -164 -84 -231 -85 -342 -1 -152 42 -239 145 -290 96 -48 235 -33 383
41 71 36 239 146 309 202 22 17 41 30 43 27 2 -2 -12 -37 -31 -79 -93 -205
-191 -503 -230 -701 -58 -289 -37 -457 69 -555 48 -44 88 -56 169 -49 88 7
159 49 267 157 309 310 488 844 489 1457 l0 131 123 11 c67 7 167 22 222 35
l101 23 -13 -61 c-48 -229 41 -453 212 -531 60 -28 184 -54 255 -54 68 0 211
27 299 56 164 54 346 168 485 302 83 82 190 222 231 306 68 136 53 238 -38
260 -51 13 -78 -9 -143 -114 -141 -226 -332 -380 -564 -451 -103 -31 -226 -33
-267 -3 -64 47 -67 124 -8 180 21 19 67 44 117 62 225 81 389 188 524 339 202
228 274 447 200 611 -52 114 -143 172 -281 180 -248 13 -446 -121 -745 -503
-152 -195 -216 -261 -300 -308 -105 -58 -182 -79 -286 -80 -99 -1 -144 16
-144 51 0 22 6 31 251 328 304 371 424 535 579 789 105 172 142 256 147 335 4
54 0 73 -19 110 -40 78 -110 110 -238 110 -54 0 -95 -7 -144 -25z m75 -317
c-55 -126 -78 -170 -148 -296 -138 -248 -335 -523 -358 -500 -11 11 234 437
358 623 49 72 156 215 162 215 2 0 -4 -19 -14 -42z m787 -830 c44 -44 -33
-225 -150 -353 -87 -95 -214 -170 -322 -190 l-39 -8 7 29 c28 112 274 435 385
506 47 29 99 36 119 16z m-1648 -1055 c0 -79 -39 -335 -75 -496 -70 -312 -202
-584 -305 -627 -45 -19 -60 -1 -60 69 0 100 61 313 162 565 22 55 64 170 94
254 56 160 86 221 134 272 42 45 50 39 50 -37z"/>
<path d="M4231 5385 c-146 -32 -236 -73 -357 -162 -194 -144 -441 -484 -660
-907 -85 -164 -88 -167 -210 -174 -239 -14 -418 139 -459 393 -17 103 -31 136
-68 153 -34 16 -61 11 -107 -20 -47 -32 -76 -79 -103 -162 -33 -105 -30 -282
6 -383 82 -232 253 -339 549 -346 65 -1 118 -4 118 -6 0 -4 -319 -690 -325
-699 -2 -2 -48 8 -103 22 -252 64 -481 72 -673 23 -290 -75 -469 -263 -469
-494 0 -222 143 -399 371 -458 135 -36 345 -4 528 81 106 49 278 166 395 270
73 64 107 87 126 87 15 0 215 -93 451 -210 462 -229 527 -260 639 -296 123
-40 189 -51 310 -51 175 0 309 42 437 137 148 110 227 282 158 347 l-25 23
-112 -48 c-111 -48 -116 -49 -234 -53 -187 -7 -307 23 -590 146 -297 130 -750
343 -761 359 -24 31 -13 58 78 208 111 185 251 441 295 543 l33 77 73 7 c215
22 463 102 642 206 173 101 391 301 493 452 140 208 227 471 209 629 -18 157
-135 266 -328 305 -93 19 -240 19 -327 1z m214 -300 c32 -31 33 -82 4 -167
-69 -205 -263 -468 -448 -609 -124 -94 -321 -172 -321 -127 0 30 50 160 95
248 58 112 220 359 303 462 151 187 297 264 367 193z m-2198 -2306 c35 -6 73
-19 86 -29 l22 -18 -47 -46 c-56 -53 -218 -135 -319 -161 -95 -25 -209 -18
-243 14 -136 127 206 291 501 240z"/>
<path d="M5243 4930 c-110 -55 -217 -200 -230 -308 -4 -39 -1 -53 19 -82 31
-45 68 -63 145 -68 135 -9 272 64 337 178 27 47 31 65 31 126 0 58 -4 77 -25
106 -34 51 -73 70 -149 75 -59 4 -73 1 -128 -27z"/>
</g>
</svg>
